<svg
   xmlns:dc="http://purl.org/dc/elements/1.1/"
   xmlns:cc="http://creativecommons.org/ns#"
   xmlns:rdf="http://www.w3.org/1999/02/22-rdf-syntax-ns#"
   xmlns:svg="http://www.w3.org/2000/svg"
   xmlns="http://www.w3.org/2000/svg"
   xmlns:sodipodi="http://sodipodi.sourceforge.net/DTD/sodipodi-0.dtd"
   xmlns:inkscape="http://www.inkscape.org/namespaces/inkscape"
   viewBox="0 0 384.73318 215.74494"
   version="1.1"
   id="svg3368">
  <defs
     id="defs3372" />
  <path
    fill ="#eee"
     id="path3378"
     d="m 205.72673,215.28249 c -8.39661,-2.7343 -13.99354,-8.22485 -13.99354,-13.72755 0,-5.05806 2.40238,-5.43518 6.45297,-1.01296 4.22506,4.61269 10.97453,7.61556 17.75551,7.8995 4.28938,0.17961 5.21211,-0.0625 4.87221,-1.27843 -2.69942,-9.65637 -0.10681,-12.32896 5.92782,-6.11068 2.1941,2.26088 4.82226,4.11068 5.84035,4.11068 2.80736,0 9.57342,-5.32797 14.20173,-11.18322 4.52488,-5.7244 10.00095,-16.07687 15.33765,-28.99571 3.11667,-7.54465 16.61176,-45.1914 16.61176,-46.34115 0,-0.26396 -0.85186,-0.47992 -1.89301,-0.47992 -2.11567,0 -3.6574,-2.84959 -2.28449,-4.22249 0.48842,-0.48842 2.4101,-1.65068 4.27039,-2.58278 3.01748,-1.51191 3.78544,-2.82745 7.11875,-12.194733 2.05502,-5.775 6.51119,-16.125 9.9026,-23 5.28143,-10.706405 7.19797,-13.519235 13.35688,-19.603276 5.17465,-5.11176 9.51349,-8.26589 15.47558,-11.25 7.72312,-3.86555 8.83645,-4.14367 16.4191,-4.10162 4.47381,0.0248 9.4842,0.62521 11.1342,1.33422 2.46324,1.05847 3.57574,1.0504 6.21788,-0.0451 3.8342,-1.58976 16.74871,-1.76473 20.99506,-0.28445 3.02695,1.0552 5.28706,4.43826 5.28706,7.91395 0,2.83099 -2.03075,2.98745 -7,0.53934 -2.475,-1.21932 -5.68687,-2.50219 -7.13749,-2.85082 -3.99322,-0.95969 -11.74331,0.84268 -13.98919,3.25336 -1.0959,1.17631 -2.41307,1.87885 -2.92705,1.56119 -1.59428,-0.98532 -7.88718,4.592011 -12.54331,11.117001 -5.51299,7.725765 -11.1884,19.885415 -15.84389,33.945755 -4.25044,12.837043 -4.36015,13.931843 -1.30907,13.063023 6.37085,-1.81415 7.71985,-1.83469 8.37495,-0.12755 1.0994,2.86501 -3.82994,6.85027 -9.25952,7.48612 l -4.68686,0.54887 -3.85229,11 c -9.07512,25.9135 -13.46337,36.81102 -20.12759,49.9836 -8.8616,17.51595 -15.76895,24.97568 -29.36919,31.7178 -8.58939,4.25806 -8.77094,4.29831 -19.25033,4.26785 -5.81855,-0.0169 -11.92917,-0.13827 -13.57917,-0.2697 -1.65,-0.13143 -7.725,-0.0196 -13.5,0.24857 -5.775,0.26815 -11.62791,0.12024 -13.00647,-0.32868 z m 46.57281,-7.20602 c 15.93127,-2.91737 25.97638,-14.33469 37.75581,-42.91342 3.17415,-7.70099 16.67784,-45.36731 16.67784,-46.52008 0,-0.26396 -0.89999,-0.47992 -2,-0.47992 -1.1,0 -2,-0.49814 -2,-1.10699 0,-0.67727 -0.67932,-0.81182 -1.75,-0.34661 -0.96249,0.41821 -3.73482,1.02885 -6.16071,1.35699 l -4.41072,0.59661 -3.85229,11 c -9.04843,25.8373 -13.45235,36.78927 -19.98977,49.712 -6.9672,13.77225 -12.1422,20.50479 -20.83651,27.10774 -4.0981,3.11231 -3.0783,3.35983 6.56635,1.59369 z m 56.29681,-97.66342 c 1.14659,-0.9625 3.47095,-5.8 5.16523,-10.750003 1.6943,-4.95 6.03294,-15.075 9.64144,-22.5 5.94486,-12.232385 7.29496,-14.217235 14.37844,-21.138416 l 7.81754,-7.63842 -2.9329,-0.58658 c -1.61309,-0.32262 -4.3954,-0.33488 -6.18291,-0.0272 -16.63269,2.86261 -28.69869,18.231921 -39.19092,49.920186 -4.25045,12.837043 -4.36015,13.931843 -1.30908,13.063023 6.28244,-1.78897 7.72319,-1.82602 8.34159,-0.21448 0.79442,2.0702 1.68462,2.04351 4.27157,-0.12808 z M 2.7331868,152.23521 c 0,-1.06031 1.12763,-6.12281 2.50584,-11.25 1.37821,-5.12719 2.7724,-12.47216 3.09821,-16.32216 l 0.59237,-7 -2.4383,2.91835 c -2.55633,3.0596 -5.24293,3.08775 -6.40208,0.0671 -1.1428,-2.9781 8.98384,-11.48546 13.6715492,-11.48546 4.56792,0 5.29957,1.95555 4.73927,12.66716 -0.50343,9.62467 -0.5018,9.63306 1.40948,7.23434 1.05243,-1.32082 3.97375,-5.87993 6.49184,-10.13135 5.2957,-8.94098 6.38811,-10.04218 9.52036,-9.5969 1.63214,0.23201 2.44543,1.15608 2.80503,3.1871 l 0.50643,2.86036 1.99764,-2.21274 c 4.84854,-5.3706 12.74525,-6.76376 14.64945,-2.5845 1.48722,3.26411 0.50034,7.79018 -3.5143,16.11745 -7.1595,14.85039 -17.86098,25.45908 -25.68179,25.45908 -4.54181,0 -6.21051,-1.82019 -6.91762,-7.54565 l -0.53338,-4.31869 -5.78627,6.93218 c -4.2859292,5.13471 -6.4250892,6.93216 -8.2499992,6.93216 -1.76632,0 -2.46373,-0.54571 -2.46373,-1.92784 z M 34.250026,141.50335 c 2.78074,-2.78074 6.05742,-8.53692 8.32681,-14.62781 2.67684,-7.18448 2.72678,-8.67442 0.26921,-8.03175 -1.03793,0.27142 -2.18949,0.004 -2.55902,-0.59362 -1.13437,-1.83545 -2.30098,-1.23233 -4.5006,2.32673 -2.17197,3.51433 -4.36719,10.23683 -5.50337,16.85316 -0.96501,5.61961 0.70543,7.33483 3.96697,4.0733 z m 27.40601,9.51554 c -1.76147,-3.29132 -0.5899,-8.54246 4.52841,-20.29704 2.57615,-5.91634 4.3846,-11.04989 4.01877,-11.40789 -0.36582,-0.358 -1.92821,0.85557 -3.47199,2.69682 -2.14454,2.55777 -3.30135,3.19078 -4.90244,2.68261 -4.70876,-1.4945 -1.60219,-6.95387 7.19095,-12.63715 9.078207,-5.86753 14.713447,-5.02853 14.713447,2.19059 0,1.21839 -2.24183,7.09958 -4.98185,13.06932 -2.74001,5.96973 -5.28239,12.08995 -5.64973,13.60048 -0.652617,2.68361 -0.622027,2.70584 1.33748,0.97208 1.10296,-0.97589 2.85667,-3.3551 3.89714,-5.28713 2.45664,-4.56171 5.75032,-4.44867 6.20297,0.21289 0.83557,8.60518 -19.217867,21.05309 -22.883157,14.20442 z m 266.666044,-0.93257 c -2.25887,-2.68451 -2.58879,-3.99114 -2.5881,-10.25 0.001,-12.37697 6.89157,-23.5446 17.99939,-29.17336 5.75176,-2.91463 13.35263,-3.34195 16.77731,-0.94321 3.42318,2.39769 3.06979,8.44217 -0.71483,12.2268 -3.48352,3.48351 -10.29516,6.84373 -17.01982,8.39597 -4.22847,0.97605 -4.9293,1.5029 -5.44779,4.09534 -2.63589,13.17944 3.08762,14.89005 12.49434,3.73424 4.62307,-5.48268 6.26369,-6.08637 7.95455,-2.92696 0.92157,1.72196 0.64849,2.75424 -1.57883,5.96827 -5.07135,7.31795 -12.94994,11.94964 -20.32656,11.94964 -4.31182,0 -5.29942,-0.40248 -7.54966,-3.07673 z m 19.33438,-29.51216 c 2.78963,-2.34731 4.13398,-5.41111 2.37435,-5.41111 -0.98852,0 -7.29762,6.2214 -7.29762,7.19617 0,1.48425 1.82378,0.82299 4.92327,-1.78506 z M 91.388173,150.33431 c -3.34553,-3.69677 -2.03259,-10.58808 6.28573,-32.9922 9.233617,-24.869353 21.050397,-49.177788 29.011107,-59.679068 6.87327,-9.066801 22.52549,-16.671951 35.60875,-17.301691 7.59374,-0.36551 8.24832,-0.23 11.30243,2.33987 2.72375,2.29188 3.19353,3.30594 2.93944,6.34484 -0.36969,4.42128 -3.68086,5.60952 -5.30244,1.90283 -0.63128,-1.44303 -2.59915,-2.79178 -5.33717,-3.65802 -3.76747,-1.19194 -5.1918,-1.16129 -10.8434,0.23339 -12.90174,3.18382 -20.0138,11.223371 -31.83898,35.991066 -9.10571,19.071783 -19.0343,44.903933 -21.86868,56.897723 -0.85344,3.61139 0.66464,3.49356 3.56218,-0.27649 6.82945,-8.88596 6.52509,-8.64599 8.49964,-6.7013 1.73166,1.70549 1.70858,1.94346 -0.61321,6.32004 -1.32694,2.5013 -4.42171,6.31631 -6.87728,8.47779 -3.68327,3.24214 -5.2005,3.92996 -8.668907,3.92996 -2.80299,0 -4.75582,-0.6095 -5.85921,-1.82874 z M 117.566,149.91305 c -3.68156,-6.69342 0.64832,-21.48385 9.05662,-30.93648 4.47395,-5.02961 13.60467,-10.21434 19.84495,-11.26864 3.60005,-0.60823 3.9243,-0.98796 6.69616,-7.842033 4.52288,-11.1838 14.32482,-30.49195 19.29317,-38.004225 5.11665,-7.736511 11.61734,-13.073791 21.79077,-17.890951 6.35354,-3.00843 7.83001,-3.30767 16.32002,-3.30767 9.03676,0 9.41327,0.0915 11.80488,2.86957 1.57861,1.83368 2.36034,3.81604 2.16551,5.49144 -0.39799,3.4225 -3.58914,4.07646 -5.77184,1.18281 -3.43903,-4.55924 -16.18119,-4.58752 -23.51949,-0.0522 -5.49171,3.39406 -11.93757,11.143861 -17.01256,20.454046 -5.23614,9.60584 -14.36478,29.33766 -18.0679,39.054343 -6.5216,17.11208 -7.66192,20.36105 -9.4419,26.90144 l -1.93187,7.09856 2.22034,-2.63308 c 1.22119,-1.4482 3.39187,-4.14555 4.82373,-5.99412 2.27917,-2.94245 2.80847,-3.19084 4.25,-1.99447 2.3458,1.94684 2.06476,3.65355 -1.44056,8.74837 -4.61338,6.70531 -10.39999,10.537 -15.35918,10.1703 -3.46717,-0.25638 -4.15035,-0.70732 -4.99496,-3.297 -0.53813,-1.65 -1.04597,-3.12448 -1.12851,-3.27662 -0.0826,-0.15214 -2.50833,1.31036 -5.39062,3.25 -6.4436,4.33622 -12.23752,4.85686 -14.20675,1.27662 z m 15.51579,-10.7141 c 1.96973,-2.18025 4.72967,-6.23025 6.13321,-9 1.40353,-2.76974 2.90391,-5.0359 3.33416,-5.0359 0.83931,0 3.18403,-5.8179 3.18403,-7.90045 0,-1.4351 -5.59942,-0.59471 -7.78645,1.16862 -2.19339,1.76846 -8.57601,13.94557 -9.80486,18.70626 -1.88932,7.31937 -0.37951,7.94943 4.93992,2.06147 z m 58.95043,11.461 c -4.74643,-3.32453 -5.36874,-14.01461 -1.34585,-23.1193 4.38084,-9.91483 17.42029,-19.3776 26.70179,-19.3776 6.52456,0 9.15178,1.84097 7.82227,5.48127 -0.53748,1.47168 -2.19547,3.40798 -3.68442,4.30289 -2.49703,1.5008 -2.97091,1.50134 -6.10482,0.007 -2.71514,-1.29476 -3.85729,-1.38629 -5.68583,-0.45563 -5.00468,2.54718 -11.95173,20.03687 -9.99895,25.17306 0.83859,2.20567 1.18766,2.32095 4.02869,1.33056 2.03315,-0.70876 4.35798,-2.96313 6.71204,-6.5086 2.69894,-4.0649 4.12209,-5.34985 5.67878,-5.12735 5.66694,0.81001 0.58641,11.29845 -8.15963,16.84502 -5.28994,3.35478 -12.33064,3.99375 -15.96406,1.4488 z m 30.10435,-1.00401 c -3.98167,-6.0768 1.09856,-22.26367 9.77807,-31.15534 2.23472,-2.28936 6.8206,-5.52436 10.19084,-7.1889 5.18813,-2.56238 7.50431,-3.07414 15.10552,-3.33755 10.81905,-0.37489 11.19908,0.16186 6.10456,8.62214 -3.70544,6.15349 -8.94587,18.06897 -10.14476,23.06677 l -0.71966,3 2.56062,-2.34878 c 1.40834,-1.29182 3.088,-3.622 3.73258,-5.17815 1.432,-3.45715 3.85068,-4.53981 5.79604,-2.59446 2.17802,2.17803 0.82805,5.69855 -4.426,11.54231 -5.20416,5.78827 -8.92757,8.07907 -13.13153,8.07907 -3.45303,0 -5.24966,-1.61419 -5.24966,-4.71658 0,-2.26562 -0.11246,-2.23922 -5.11221,1.2 -6.47984,4.45734 -11.97437,4.84027 -14.48441,1.00946 z m 14.77699,-10.24289 c 1.405,-1.5125 3.81138,-5 5.34751,-7.75 1.53613,-2.75 3.84056,-6.02587 5.12095,-7.27972 2.38596,-2.33649 4.07414,-6.83065 2.97771,-7.92706 -0.3375,-0.33752 -2.30405,-0.10606 -4.37009,0.51434 -2.86352,0.85986 -4.5705,2.37331 -7.18104,6.36687 -8.122,12.42487 -9.51998,24.28391 -1.89504,16.07558 z m 115.81963,-38.33402 c -4.92446,-2.232553 -9,-5.599533 -9,-7.435313 0,-1.65608 3.34468,-4.48067 5.3057,-4.48067 0.90651,0 2.35509,1.07885 3.21904,2.39742 1.60861,2.45502 8.42753,5.84565 14.22526,7.07331 3.91094,0.82813 4.11654,1.813423 0.70295,3.368753 -3.79403,1.72868 -9.39181,1.371 -14.45295,-0.9235 z M 66.733186,94.176517 c -1.16033,-0.76027 -0.82066,-0.989 1.5,-1.01003 4.689927,-0.0425 12.802877,-2.49918 18.508607,-5.60464 10.22777,-5.56665 15.664277,-15.54886 9.24139,-16.96854 -15.27973,-3.377345 -20.45136,-5.698285 -26.764527,-12.011465 -3.8024,-3.802391 -7.48547,-10.286831 -7.48547,-13.178961 0,-2.81088 2.02842,-4.23983 6.0185,-4.23983 1.99017,0 5.991807,-0.7048 8.892537,-1.56623 9.14875,-2.71688 17.02408,-12.82309 15.93551,-20.44963 -0.2665,-1.86712 -1.27051,-2.68628 -4.34655,-3.5463 -5.45209,-1.52432 -5.2751,-3.8461 0.3239,-4.24895 5.69502,-0.40977 7.18121,0.97867 7.15414,6.68355 -0.0262,5.52428 -2.51405,11.39057 -6.99493,16.49401 -3.9081,4.45108 -7.44862,6.43726 -15.42928,8.6556 -7.809977,2.1709 -8.727707,3.7012 -5.672907,9.45954 4.24882,8.009111 12.961867,12.917901 25.798577,14.534501 8.867817,1.11677 10.730967,2.508025 9.208277,6.875995 -2.26834,6.50698 -11.182917,14.30113 -20.523947,17.9444 -6.19987,2.41813 -13.431857,3.44287 -15.363827,2.17698 z m 5.29862,-28.372555 c -9.56473,-7.04115 -17.03711,-18.706981 -18.00799,-28.113971 -0.6779,-6.56819 0.31428,-7.06266 8.84444,-4.40777 4.36064,1.35718 7.57303,1.76804 10.266187,1.31303 4.2421,-0.7167 8.59874,-4.29657 8.59874,-7.06563 0,-0.94838 -4.46914,-6.05505 -9.931427,-11.34815 -9.25526,-8.9685995 -12.20168,-13.3759995 -10.63582,-15.90960953 1.03412,-1.67323997 9.4605,4.76161003 11.51896,8.79653003 1.917337,3.7582895 8.090287,9.9763995 11.959817,12.0473095 3.43112,1.83628 2.83191,7.5039 -1.22192,11.55775 -4.54523,4.54521 -10.44491,6.04691 -18.171457,4.62532 -4.89719,-0.90102 -6.2371,-0.84533 -7.38955,0.30711 -1.21025,1.21026 -1.1662,2.14601 0.31412,6.67181 2.82681,8.64249 11.31361,18.994681 18.110977,22.091771 1.34547,0.61304 2.44631,1.71738 2.44631,2.4541 0,1.883395 -0.10605,1.835615 -6.701377,-3.0196 z"
     inkscape:connector-curvature="0" />
</svg>
